<svg width="47" height="46" viewBox="0 0 47 46" fill="none" xmlns="http://www.w3.org/2000/svg">
<path d="M0 0C5.61 0 11.22 0 17 0C17 4.29 17 8.58 17 13C16.01 13 15.02 13 14 13C14 13.99 14 14.98 14 16C12.68 16 11.36 16 10 16C10 18.31 10 20.62 10 23C11.32 23 12.64 23 14 23C14 23.99 14 24.98 14 26C14.99 26 15.98 26 17 26C17 27.32 17 28.64 17 30C17.99 30 18.98 30 20 30C20 30.99 20 31.98 20 33C20.99 33 21.98 33 23 33C23 33.99 23 34.98 23 36C25.31 36 27.62 36 30 36C30 35.01 30 34.02 30 33C30.99 33 31.98 33 33 33C33 32.01 33 31.02 33 30C37.62 30 42.24 30 47 30C47 35.28 47 40.56 47 46C37.1 46 27.2 46 17 46C17 45.01 17 44.02 17 43C16.01 43 15.02 43 14 43C14 42.01 14 41.02 14 40C12.68 40 11.36 40 10 40C10 38.68 10 37.36 10 36C9.01 36 8.02 36 7 36C7 35.01 7 34.02 7 33C6.01 33 5.02 33 4 33C4 32.01 4 31.02 4 30C2.68 30 1.36 30 0 30C0 20.1 0 10.2 0 0Z" fill="#fff"/>
</svg>
