<svg width="53" height="23" viewBox="0 0 53 23" fill="none" xmlns="http://www.w3.org/2000/svg">
<path d="M10 0C20.89 0 31.78 0 43 0C43 0.99 43 1.98 43 3C43.99 3 44.98 3 46 3C46 3.99 46 4.98 46 6C47.32 6 48.64 6 50 6C50 7.32 50 8.64 50 10C50.99 10 51.98 10 53 10C53 14.29 53 18.58 53 23C47.39 23 41.78 23 36 23C36 20.69 36 18.38 36 16C36.99 16 37.98 16 39 16C39 15.01 39 14.02 39 13C38.01 13 37.02 13 36 13C36 12.01 36 11.02 36 10C29.4 10 22.8 10 16 10C16 10.99 16 11.98 16 13C15.01 13 14.02 13 13 13C13 14.32 13 15.64 13 17C13.99 17 14.98 17 16 17C16 18.98 16 20.96 16 23C10.72 23 5.44 23 0 23C0 18.71 0 14.42 0 10C0.99 10 1.98 10 3 10C3 8.68 3 7.36 3 6C3.99 6 4.98 6 6 6C6 5.01 6 4.02 6 3C7.32 3 8.64 3 10 3C10 2.01 10 1.02 10 0Z" fill="#fff"/>
</svg>
