<svg width="50" height="33" viewBox="0 0 50 33" fill="none" xmlns="http://www.w3.org/2000/svg">
<path d="M7 0C15.58 0 24.16 0 33 0C33 4.29 33 8.58 33 13C34.32 13 35.64 13 37 13C37 11.68 37 10.36 37 9C37.99 9 38.98 9 40 9C40 8.01 40 7.02 40 6C40.99 6 41.98 6 43 6C43 5.01 43 4.02 43 3C45.31 3 47.62 3 50 3C50 11.58 50 20.16 50 29C47.69 29 45.38 29 43 29C43 28.01 43 27.02 43 26C42.01 26 41.02 26 40 26C40 25.01 40 24.02 40 23C39.01 23 38.02 23 37 23C37 21.68 37 20.36 37 19C35.68 19 34.36 19 33 19C33 23.62 33 28.24 33 33C22.11 33 11.22 33 0 33C0 24.09 0 15.18 0 6C0.99 6 1.98 6 3 6C3 5.01 3 4.02 3 3C4.32 3 5.64 3 7 3C7 2.01 7 1.02 7 0Z" fill="#fff"/>
</svg>
